<svg xmlns="http://www.w3.org/2000/svg" xmlns:xlink="http://www.w3.org/1999/xlink" version="1.1" viewBox="0 0 200 200">
  <defs>
    <style>
      .cls-1 {
        fill: url(#_Безымянный_градиент);
      }

      .cls-2 {
        fill: url(#_Безымянный_градиент_2);
      }

      .cls-3 {
        fill: #e80a89;
      }
    </style>
    <linearGradient id="_Безымянный_градиент" data-name="Безымянный градиент" x1="84.3" y1="643.2" x2="151.8" y2="788.1" gradientTransform="translate(0 -642)" gradientUnits="userSpaceOnUse">
      <stop offset="0" stop-color="#e80a89"></stop>
      <stop offset=".2" stop-color="#ca2296"></stop>
      <stop offset=".5" stop-color="#7d60b8"></stop>
      <stop offset=".8" stop-color="#26a7df"></stop>
      <stop offset="1" stop-color="#68c7c8"></stop>
    </linearGradient>
    <linearGradient id="_Безымянный_градиент_2" data-name="Безымянный градиент 2" x1="36.2" y1="135.9" x2="157.6" y2="14.6" gradientTransform="translate(0 199.9) scale(1 -1)" gradientUnits="userSpaceOnUse">
      <stop offset="0" stop-color="#e80a89"></stop>
      <stop offset=".3" stop-color="#8d44a2"></stop>
      <stop offset=".5" stop-color="#506cb4"></stop>
      <stop offset=".6" stop-color="#4d68b1"></stop>
      <stop offset=".7" stop-color="#455daa"></stop>
      <stop offset=".7" stop-color="#435aa9"></stop>
      <stop offset="1" stop-color="#314199"></stop>
    </linearGradient>
  </defs>
  
  <g>
    <g id="_Слой_1" data-name="Слой_1">
      <circle class="cls-3" cx="31.5" cy="30.1" r="21.5"></circle>
      <path class="cls-1" d="M138.4,150.6c21.5-5.7,39.5-17.9,49.4-33.6l2-3.1c.8-4.8,1.2-9.7,1.2-14.7,0-49.4-40.1-89.6-89.4-89.6h-35.4l-.2,99.2c0,10,8.1,18.2,18.1,18.2h0c10,0,18.1-8.1,18.1-18.1v-63c29,.4,52.4,24.2,52.4,53.3s-23.8,53.3-53.1,53.3c0,0-2.9-.1-4.4-.2,12.7,2.5,27.1,2,41.2-1.7h.1Z"></path>
      <path class="cls-2" d="M12.7,100.7c-.6,106.2,156.1,121.4,176.9,18.6-40,58.7-152.4,50-140.6-36.6-.4-23.9-35.9-23.9-36.3,0v18h0Z"></path>
    </g>
  </g>
</svg>